<svg version="1.2" xmlns="http://www.w3.org/2000/svg" viewBox="0 0 307 203" width="307" height="203">
	<title>Group 1171276852-svg</title>
	<style>
		.s0 { fill: #fcf0d9 } 
		.s1 { fill: #ee9b00 } 
	</style>
	<path id="Layer" class="s0" d="m269.7 153.5c-88.2-28.7-216 134.6-272.4-40.7-39.9-124.3 103.9-262.6 192-174.9 53.4 53.2 43.4 48.1 112.5 50.2 69.9 2.2 136 24.5 158.5 120.7 11.6 49.8-18.3 131.3-67.3 150.6-61.3 24.1-69.3-88.4-123.3-105.9z"/>
	<path id="Layer" class="s1" d="m276.2 118.5c-88.2-28.7-216 134.6-272.4-40.7-39.9-124.3 103.9-262.6 192-174.9 53.4 53.2 43.4 48.1 112.5 50.2 69.9 2.2 136 24.5 158.5 120.7 11.6 49.8-18.3 131.3-67.3 150.6-61.2 24.1-69.3-88.4-123.3-105.9z"/>
</svg>